%TF.GenerationSoftware,KiCad,Pcbnew,(5.1.10)-1*%
%TF.CreationDate,2021-11-12T11:53:13+05:30*%
%TF.ProjectId,DIscrete Linear Supply Rev4,44497363-7265-4746-9520-4c696e656172,rev?*%
%TF.SameCoordinates,Original*%
%TF.FileFunction,Soldermask,Bot*%
%TF.FilePolarity,Negative*%
%FSLAX46Y46*%
G04 Gerber Fmt 4.6, Leading zero omitted, Abs format (unit mm)*
G04 Created by KiCad (PCBNEW (5.1.10)-1) date 2021-11-12 11:53:13*
%MOMM*%
%LPD*%
G01*
G04 APERTURE LIST*
%ADD10O,2.200000X2.200000*%
%ADD11R,2.200000X2.200000*%
%ADD12C,1.600000*%
%ADD13R,1.600000X1.600000*%
%ADD14C,0.800000*%
%ADD15C,6.400000*%
%ADD16C,3.000000*%
%ADD17R,3.000000X3.000000*%
%ADD18O,1.700000X1.700000*%
%ADD19R,1.700000X1.700000*%
%ADD20C,6.000000*%
%ADD21C,1.440000*%
%ADD22O,1.600000X1.600000*%
%ADD23O,2.400000X2.400000*%
%ADD24C,2.400000*%
%ADD25O,2.000000X1.905000*%
%ADD26R,2.000000X1.905000*%
%ADD27R,1.500000X1.500000*%
%ADD28C,1.500000*%
%ADD29R,2.400000X2.400000*%
G04 APERTURE END LIST*
D10*
%TO.C,D8*%
X274320000Y-177800000D03*
D11*
X274320000Y-167640000D03*
%TD*%
D10*
%TO.C,D7*%
X274320000Y-132080000D03*
D11*
X274320000Y-121920000D03*
%TD*%
D12*
%TO.C,C11*%
X249000000Y-134620000D03*
D13*
X254000000Y-134620000D03*
%TD*%
D12*
%TO.C,C12*%
X253920000Y-165100000D03*
D13*
X248920000Y-165100000D03*
%TD*%
D14*
%TO.C,H4*%
X276017056Y-191202944D03*
X274320000Y-190500000D03*
X272622944Y-191202944D03*
X271920000Y-192900000D03*
X272622944Y-194597056D03*
X274320000Y-195300000D03*
X276017056Y-194597056D03*
X276720000Y-192900000D03*
D15*
X274320000Y-192900000D03*
%TD*%
D14*
%TO.C,H3*%
X276017056Y-104982944D03*
X274320000Y-104280000D03*
X272622944Y-104982944D03*
X271920000Y-106680000D03*
X272622944Y-108377056D03*
X274320000Y-109080000D03*
X276017056Y-108377056D03*
X276720000Y-106680000D03*
D15*
X274320000Y-106680000D03*
%TD*%
D14*
%TO.C,H2*%
X133777056Y-191342944D03*
X132080000Y-190640000D03*
X130382944Y-191342944D03*
X129680000Y-193040000D03*
X130382944Y-194737056D03*
X132080000Y-195440000D03*
X133777056Y-194737056D03*
X134480000Y-193040000D03*
D15*
X132080000Y-193040000D03*
%TD*%
D14*
%TO.C,H1*%
X133777056Y-104982944D03*
X132080000Y-104280000D03*
X130382944Y-104982944D03*
X129680000Y-106680000D03*
X130382944Y-108377056D03*
X132080000Y-109080000D03*
X133777056Y-108377056D03*
X134480000Y-106680000D03*
D15*
X132080000Y-106680000D03*
%TD*%
D16*
%TO.C,J2*%
X248920000Y-142240000D03*
D17*
X248920000Y-157480000D03*
D16*
X248920000Y-147320000D03*
X248920000Y-152400000D03*
%TD*%
%TO.C,J1*%
X134620000Y-142240000D03*
D17*
X134620000Y-157480000D03*
D16*
X134620000Y-147320000D03*
X134620000Y-152400000D03*
%TD*%
D10*
%TO.C,D6*%
X137160000Y-180340000D03*
D11*
X137160000Y-170180000D03*
%TD*%
D10*
%TO.C,D5*%
X137160000Y-129540000D03*
D11*
X137160000Y-119380000D03*
%TD*%
D10*
%TO.C,D4*%
X132080000Y-180340000D03*
D11*
X132080000Y-170180000D03*
%TD*%
D10*
%TO.C,D3*%
X132080000Y-129540000D03*
D11*
X132080000Y-119380000D03*
%TD*%
D18*
%TO.C,R23*%
X224790000Y-151130000D03*
D19*
X224790000Y-148590000D03*
%TD*%
D18*
%TO.C,R12*%
X205740000Y-151130000D03*
D19*
X205740000Y-148590000D03*
%TD*%
D20*
%TO.C,HS2*%
X264160000Y-185420000D03*
X264160000Y-160020000D03*
%TD*%
%TO.C,HS1*%
X264160000Y-139700000D03*
X264160000Y-114300000D03*
%TD*%
D21*
%TO.C,RV6*%
X203200000Y-180340000D03*
X203200000Y-177800000D03*
X203200000Y-175260000D03*
%TD*%
%TO.C,RV5*%
X203200000Y-124460000D03*
X203200000Y-121920000D03*
X203200000Y-119380000D03*
%TD*%
%TO.C,RV4*%
X193040000Y-160020000D03*
X193040000Y-157480000D03*
X193040000Y-154940000D03*
%TD*%
%TO.C,RV3*%
X193040000Y-144780000D03*
X193040000Y-142240000D03*
X193040000Y-139700000D03*
%TD*%
%TO.C,RV2*%
X170180000Y-154940000D03*
X170180000Y-157480000D03*
X170180000Y-160020000D03*
%TD*%
%TO.C,RV1*%
X170180000Y-139700000D03*
X170180000Y-142240000D03*
X170180000Y-144780000D03*
%TD*%
D22*
%TO.C,R32*%
X251460000Y-193040000D03*
D12*
X251460000Y-182880000D03*
%TD*%
D22*
%TO.C,R31*%
X251460000Y-116840000D03*
D12*
X251460000Y-106680000D03*
%TD*%
D22*
%TO.C,R30*%
X241300000Y-193040000D03*
D12*
X241300000Y-182880000D03*
%TD*%
D22*
%TO.C,R29*%
X241300000Y-162560000D03*
D12*
X241300000Y-152400000D03*
%TD*%
D22*
%TO.C,R28*%
X241300000Y-147320000D03*
D12*
X241300000Y-137160000D03*
%TD*%
D22*
%TO.C,R27*%
X241300000Y-116840000D03*
D12*
X241300000Y-106680000D03*
%TD*%
D22*
%TO.C,R26*%
X231140000Y-162560000D03*
D12*
X231140000Y-152400000D03*
%TD*%
D22*
%TO.C,R25*%
X231140000Y-147320000D03*
D12*
X231140000Y-137160000D03*
%TD*%
D22*
%TO.C,R24*%
X231140000Y-193040000D03*
D12*
X231140000Y-182880000D03*
%TD*%
D22*
%TO.C,R22*%
X231140000Y-116840000D03*
D12*
X231140000Y-106680000D03*
%TD*%
D22*
%TO.C,R21*%
X210820000Y-182880000D03*
D12*
X210820000Y-172720000D03*
%TD*%
D22*
%TO.C,R20*%
X210820000Y-127000000D03*
D12*
X210820000Y-116840000D03*
%TD*%
D23*
%TO.C,R19*%
X193040000Y-190500000D03*
D24*
X213360000Y-190500000D03*
%TD*%
D23*
%TO.C,R18*%
X193040000Y-109220000D03*
D24*
X213360000Y-109220000D03*
%TD*%
D22*
%TO.C,R17*%
X195580000Y-182880000D03*
D12*
X195580000Y-172720000D03*
%TD*%
D22*
%TO.C,R16*%
X195580000Y-127000000D03*
D12*
X195580000Y-116840000D03*
%TD*%
D22*
%TO.C,R15*%
X200660000Y-162560000D03*
D12*
X200660000Y-152400000D03*
%TD*%
D22*
%TO.C,R14*%
X200660000Y-147320000D03*
D12*
X200660000Y-137160000D03*
%TD*%
D22*
%TO.C,R13*%
X185420000Y-193040000D03*
D12*
X185420000Y-182880000D03*
%TD*%
D22*
%TO.C,R11*%
X185420000Y-116840000D03*
D12*
X185420000Y-106680000D03*
%TD*%
D22*
%TO.C,R10*%
X185420000Y-162560000D03*
D12*
X185420000Y-152400000D03*
%TD*%
D22*
%TO.C,R9*%
X185420000Y-147320000D03*
D12*
X185420000Y-137160000D03*
%TD*%
D22*
%TO.C,R8*%
X177800000Y-193040000D03*
D12*
X177800000Y-182880000D03*
%TD*%
D22*
%TO.C,R7*%
X177800000Y-116840000D03*
D12*
X177800000Y-106680000D03*
%TD*%
D22*
%TO.C,R6*%
X170180000Y-182880000D03*
D12*
X170180000Y-193040000D03*
%TD*%
D22*
%TO.C,R5*%
X170180000Y-106680000D03*
D12*
X170180000Y-116840000D03*
%TD*%
D22*
%TO.C,R4*%
X162560000Y-193040000D03*
D12*
X162560000Y-182880000D03*
%TD*%
D22*
%TO.C,R3*%
X162560000Y-162560000D03*
D12*
X162560000Y-152400000D03*
%TD*%
D22*
%TO.C,R2*%
X162560000Y-147320000D03*
D12*
X162560000Y-137160000D03*
%TD*%
D22*
%TO.C,R1*%
X162560000Y-116840000D03*
D12*
X162560000Y-106680000D03*
%TD*%
D25*
%TO.C,Q42*%
X269240000Y-170180000D03*
X269240000Y-172720000D03*
D26*
X269240000Y-175260000D03*
%TD*%
D25*
%TO.C,Q41*%
X269240000Y-124460000D03*
X269240000Y-127000000D03*
D26*
X269240000Y-129540000D03*
%TD*%
D27*
%TO.C,Q40*%
X248920000Y-177800000D03*
D28*
X254000000Y-177800000D03*
X251460000Y-177800000D03*
%TD*%
D27*
%TO.C,Q39*%
X248920000Y-121920000D03*
D28*
X254000000Y-121920000D03*
X251460000Y-121920000D03*
%TD*%
D27*
%TO.C,Q38*%
X238760000Y-177800000D03*
D28*
X243840000Y-177800000D03*
X241300000Y-177800000D03*
%TD*%
D27*
%TO.C,Q37*%
X238760000Y-167640000D03*
D28*
X243840000Y-167640000D03*
X241300000Y-167640000D03*
%TD*%
D27*
%TO.C,Q36*%
X238760000Y-132080000D03*
D28*
X243840000Y-132080000D03*
X241300000Y-132080000D03*
%TD*%
D27*
%TO.C,Q35*%
X238760000Y-121920000D03*
D28*
X243840000Y-121920000D03*
X241300000Y-121920000D03*
%TD*%
D27*
%TO.C,Q34*%
X233680000Y-172720000D03*
D28*
X238760000Y-172720000D03*
X236220000Y-172720000D03*
%TD*%
D27*
%TO.C,Q33*%
X233680000Y-127000000D03*
D28*
X238760000Y-127000000D03*
X236220000Y-127000000D03*
%TD*%
D27*
%TO.C,Q32*%
X228600000Y-167640000D03*
D28*
X233680000Y-167640000D03*
X231140000Y-167640000D03*
%TD*%
D27*
%TO.C,Q31*%
X228600000Y-132080000D03*
D28*
X233680000Y-132080000D03*
X231140000Y-132080000D03*
%TD*%
D27*
%TO.C,Q30*%
X228600000Y-177800000D03*
D28*
X233680000Y-177800000D03*
X231140000Y-177800000D03*
%TD*%
D27*
%TO.C,Q29*%
X228600000Y-121920000D03*
D28*
X233680000Y-121920000D03*
X231140000Y-121920000D03*
%TD*%
D27*
%TO.C,Q28*%
X215900000Y-172720000D03*
D28*
X220980000Y-172720000D03*
X218440000Y-172720000D03*
%TD*%
D27*
%TO.C,Q27*%
X215900000Y-127000000D03*
D28*
X220980000Y-127000000D03*
X218440000Y-127000000D03*
%TD*%
D27*
%TO.C,Q26*%
X215900000Y-167640000D03*
D28*
X220980000Y-167640000D03*
X218440000Y-167640000D03*
%TD*%
D27*
%TO.C,Q25*%
X215900000Y-162560000D03*
D28*
X220980000Y-162560000D03*
X218440000Y-162560000D03*
%TD*%
D27*
%TO.C,Q24*%
X215900000Y-157480000D03*
D28*
X220980000Y-157480000D03*
X218440000Y-157480000D03*
%TD*%
D27*
%TO.C,Q23*%
X215900000Y-142240000D03*
D28*
X220980000Y-142240000D03*
X218440000Y-142240000D03*
%TD*%
D27*
%TO.C,Q22*%
X215900000Y-137160000D03*
D28*
X220980000Y-137160000D03*
X218440000Y-137160000D03*
%TD*%
D27*
%TO.C,Q21*%
X215900000Y-132080000D03*
D28*
X220980000Y-132080000D03*
X218440000Y-132080000D03*
%TD*%
D27*
%TO.C,Q20*%
X205740000Y-167640000D03*
D28*
X210820000Y-167640000D03*
X208280000Y-167640000D03*
%TD*%
D27*
%TO.C,Q19*%
X205740000Y-162560000D03*
D28*
X210820000Y-162560000D03*
X208280000Y-162560000D03*
%TD*%
D27*
%TO.C,Q18*%
X205740000Y-157480000D03*
D28*
X210820000Y-157480000D03*
X208280000Y-157480000D03*
%TD*%
D27*
%TO.C,Q17*%
X205740000Y-142240000D03*
D28*
X210820000Y-142240000D03*
X208280000Y-142240000D03*
%TD*%
D27*
%TO.C,Q16*%
X205740000Y-137160000D03*
D28*
X210820000Y-137160000D03*
X208280000Y-137160000D03*
%TD*%
D27*
%TO.C,Q15*%
X205740000Y-132080000D03*
D28*
X210820000Y-132080000D03*
X208280000Y-132080000D03*
%TD*%
D27*
%TO.C,Q14*%
X195580000Y-167640000D03*
D28*
X200660000Y-167640000D03*
X198120000Y-167640000D03*
%TD*%
D27*
%TO.C,Q13*%
X195580000Y-132080000D03*
D28*
X200660000Y-132080000D03*
X198120000Y-132080000D03*
%TD*%
D27*
%TO.C,Q12*%
X185420000Y-167640000D03*
D28*
X190500000Y-167640000D03*
X187960000Y-167640000D03*
%TD*%
D27*
%TO.C,Q11*%
X185420000Y-132080000D03*
D28*
X190500000Y-132080000D03*
X187960000Y-132080000D03*
%TD*%
D27*
%TO.C,Q10*%
X185420000Y-177800000D03*
D28*
X190500000Y-177800000D03*
X187960000Y-177800000D03*
%TD*%
D27*
%TO.C,Q9*%
X185420000Y-121920000D03*
D28*
X190500000Y-121920000D03*
X187960000Y-121920000D03*
%TD*%
D27*
%TO.C,Q8*%
X172720000Y-177800000D03*
D28*
X177800000Y-177800000D03*
X175260000Y-177800000D03*
%TD*%
D27*
%TO.C,Q7*%
X172720000Y-121920000D03*
D28*
X177800000Y-121920000D03*
X175260000Y-121920000D03*
%TD*%
D27*
%TO.C,Q6*%
X167640000Y-172720000D03*
D28*
X172720000Y-172720000D03*
X170180000Y-172720000D03*
%TD*%
D27*
%TO.C,Q5*%
X167640000Y-127000000D03*
D28*
X172720000Y-127000000D03*
X170180000Y-127000000D03*
%TD*%
D27*
%TO.C,Q4*%
X162560000Y-177800000D03*
D28*
X167640000Y-177800000D03*
X165100000Y-177800000D03*
%TD*%
D27*
%TO.C,Q3*%
X162560000Y-167640000D03*
D28*
X167640000Y-167640000D03*
X165100000Y-167640000D03*
%TD*%
D27*
%TO.C,Q2*%
X162560000Y-132080000D03*
D28*
X167640000Y-132080000D03*
X165100000Y-132080000D03*
%TD*%
D27*
%TO.C,Q1*%
X162560000Y-121920000D03*
D28*
X167640000Y-121920000D03*
X165100000Y-121920000D03*
%TD*%
D10*
%TO.C,D2*%
X177800000Y-162560000D03*
D11*
X177800000Y-152400000D03*
%TD*%
D10*
%TO.C,D1*%
X177800000Y-147320000D03*
D11*
X177800000Y-137160000D03*
%TD*%
D12*
%TO.C,C10*%
X243800000Y-172720000D03*
X241300000Y-172720000D03*
%TD*%
%TO.C,C9*%
X241340000Y-126960000D03*
X243840000Y-126960000D03*
%TD*%
%TO.C,C8*%
X217170000Y-177800000D03*
X219670000Y-177800000D03*
%TD*%
%TO.C,C7*%
X217210000Y-121920000D03*
X219710000Y-121920000D03*
%TD*%
D24*
%TO.C,C6*%
X147320000Y-162560000D03*
D29*
X154820000Y-162560000D03*
%TD*%
D24*
%TO.C,C5*%
X154940000Y-116840000D03*
D29*
X147440000Y-116840000D03*
%TD*%
D24*
%TO.C,C4*%
X147440000Y-182880000D03*
D29*
X154940000Y-182880000D03*
%TD*%
D24*
%TO.C,C3*%
X154940000Y-137160000D03*
D29*
X147440000Y-137160000D03*
%TD*%
M02*
