M48
; DRILL file {KiCad (5.1.10)-1} date 11/12/21 11:53:11
; FORMAT={-:-/ absolute / inch / decimal}
; #@! TF.CreationDate,2021-11-12T11:53:11+05:30
; #@! TF.GenerationSoftware,Kicad,Pcbnew,(5.1.10)-1
; #@! TF.FileFunction,Plated,1,2,PTH
FMAT,2
INCH
T1C0.0157
T2C0.0197
T3C0.0315
T4C0.0394
T5C0.0433
T6C0.0472
T7C0.0598
T8C0.1260
T9C0.1378
%
G90
G05
T1
X9.7Y-5.15
T2
X5.1055Y-4.2
X5.1055Y-7.6
X5.1332Y-4.1332
X5.1332Y-4.2668
X5.1332Y-7.5332
X5.1332Y-7.6668
X5.2Y-4.1055
X5.2Y-4.2945
X5.2Y-7.5055
X5.2Y-7.6945
X5.2668Y-4.1332
X5.2668Y-4.2668
X5.2668Y-7.5332
X5.2668Y-7.6668
X5.2945Y-4.2
X5.2945Y-7.6
X10.7055Y-4.2
X10.7055Y-7.5945
X10.7332Y-4.1332
X10.7332Y-4.2668
X10.7332Y-7.5277
X10.7332Y-7.6613
X10.8Y-4.1055
X10.8Y-4.2945
X10.8Y-7.5
X10.8Y-7.689
X10.8668Y-4.1332
X10.8668Y-4.2668
X10.8668Y-7.5277
X10.8668Y-7.6613
X10.8945Y-4.2
X10.8945Y-7.5945
T3
X6.4Y-4.2
X6.4Y-4.6
X6.4Y-4.8
X6.4Y-5.2
X6.4Y-5.4
X6.4Y-5.8
X6.4Y-6.0
X6.4Y-6.4
X6.4Y-6.6
X6.4Y-7.0
X6.4Y-7.2
X6.4Y-7.6
X6.5Y-4.8
X6.5Y-5.2
X6.5Y-6.6
X6.5Y-7.0
X6.6Y-4.8
X6.6Y-5.0
X6.6Y-5.2
X6.6Y-6.6
X6.6Y-6.8
X6.6Y-7.0
X6.7Y-4.2
X6.7Y-4.6
X6.7Y-5.0
X6.7Y-5.5
X6.7Y-5.6
X6.7Y-5.7
X6.7Y-6.1
X6.7Y-6.2
X6.7Y-6.3
X6.7Y-6.8
X6.7Y-7.2
X6.7Y-7.6
X6.8Y-4.8
X6.8Y-5.0
X6.8Y-6.8
X6.8Y-7.0
X6.9Y-4.8
X6.9Y-7.0
X7.0Y-4.2
X7.0Y-4.6
X7.0Y-4.8
X7.0Y-7.0
X7.0Y-7.2
X7.0Y-7.6
X7.3Y-4.2
X7.3Y-4.6
X7.3Y-4.8
X7.3Y-5.2
X7.3Y-5.4
X7.3Y-5.8
X7.3Y-6.0
X7.3Y-6.4
X7.3Y-6.6
X7.3Y-7.0
X7.3Y-7.2
X7.3Y-7.6
X7.4Y-4.8
X7.4Y-5.2
X7.4Y-6.6
X7.4Y-7.0
X7.5Y-4.8
X7.5Y-5.2
X7.5Y-6.6
X7.5Y-7.0
X7.6Y-5.5
X7.6Y-5.6
X7.6Y-5.7
X7.6Y-6.1
X7.6Y-6.2
X7.6Y-6.3
X7.7Y-4.6
X7.7Y-5.0
X7.7Y-5.2
X7.7Y-6.6
X7.7Y-6.8
X7.7Y-7.2
X7.8Y-5.2
X7.8Y-6.6
X7.9Y-5.2
X7.9Y-5.4
X7.9Y-5.8
X7.9Y-6.0
X7.9Y-6.4
X7.9Y-6.6
X8.0Y-4.7
X8.0Y-4.8
X8.0Y-4.9
X8.0Y-6.9
X8.0Y-7.0
X8.0Y-7.1
X8.1Y-5.2
X8.1Y-5.4
X8.1Y-5.6
X8.1Y-6.2
X8.1Y-6.4
X8.1Y-6.6
X8.2Y-5.2
X8.2Y-5.4
X8.2Y-5.6
X8.2Y-6.2
X8.2Y-6.4
X8.2Y-6.6
X8.3Y-4.6
X8.3Y-5.0
X8.3Y-5.2
X8.3Y-5.4
X8.3Y-5.6
X8.3Y-6.2
X8.3Y-6.4
X8.3Y-6.6
X8.3Y-6.8
X8.3Y-7.2
X8.5Y-5.0
X8.5Y-5.2
X8.5Y-5.4
X8.5Y-5.6
X8.5Y-6.2
X8.5Y-6.4
X8.5Y-6.6
X8.5Y-6.8
X8.55Y-7.0
X8.5516Y-4.8
X8.6Y-5.0
X8.6Y-5.2
X8.6Y-5.4
X8.6Y-5.6
X8.6Y-6.2
X8.6Y-6.4
X8.6Y-6.6
X8.6Y-6.8
X8.6484Y-7.0
X8.65Y-4.8
X8.7Y-5.0
X8.7Y-5.2
X8.7Y-5.4
X8.7Y-5.6
X8.7Y-6.2
X8.7Y-6.4
X8.7Y-6.6
X8.7Y-6.8
X9.0Y-4.8
X9.0Y-5.2
X9.0Y-6.6
X9.0Y-7.0
X9.1Y-4.2
X9.1Y-4.6
X9.1Y-4.8
X9.1Y-5.2
X9.1Y-5.4
X9.1Y-5.8
X9.1Y-6.0
X9.1Y-6.4
X9.1Y-6.6
X9.1Y-7.0
X9.1Y-7.2
X9.1Y-7.6
X9.2Y-4.8
X9.2Y-5.0
X9.2Y-5.2
X9.2Y-6.6
X9.2Y-6.8
X9.2Y-7.0
X9.3Y-5.0
X9.3Y-6.8
X9.4Y-4.8
X9.4Y-5.0
X9.4Y-5.2
X9.4Y-6.6
X9.4Y-6.8
X9.4Y-7.0
X9.5Y-4.2
X9.5Y-4.6
X9.5Y-4.8
X9.5Y-5.2
X9.5Y-5.4
X9.5Y-5.8
X9.5Y-6.0
X9.5Y-6.4
X9.5Y-6.6
X9.5Y-6.8
X9.5Y-7.0
X9.5Y-7.2
X9.5Y-7.6
X9.5016Y-4.9984
X9.5984Y-6.8
X9.6Y-4.8
X9.6Y-4.9984
X9.6Y-5.2
X9.6Y-6.6
X9.6Y-7.0
X9.8Y-4.8
X9.8Y-6.5
X9.8Y-7.0
X9.8031Y-5.3
X9.9Y-4.2
X9.9Y-4.6
X9.9Y-4.8
X9.9Y-7.0
X9.9Y-7.2
X9.9Y-7.6
X9.9969Y-6.5
X10.0Y-4.8
X10.0Y-5.3
X10.0Y-7.0
T4
X8.1Y-5.85
X8.1Y-5.95
X8.85Y-5.85
X8.85Y-5.95
T5
X5.2Y-4.7
X5.2Y-5.1
X5.2Y-6.7
X5.2Y-7.1
X5.4Y-4.7
X5.4Y-5.1
X5.4Y-6.7
X5.4Y-7.1
X7.0Y-5.4
X7.0Y-5.8
X7.0Y-6.0
X7.0Y-6.4
X10.6Y-4.9
X10.6Y-5.0
X10.6Y-5.1
X10.6Y-6.7
X10.6Y-6.8
X10.6Y-6.9
X10.8Y-4.8
X10.8Y-5.2
X10.8Y-6.6
X10.8Y-7.0
T6
X5.8Y-6.4
X5.8047Y-4.6
X5.8047Y-5.4
X5.8047Y-7.2
X6.0953Y-6.4
X6.1Y-4.6
X6.1Y-5.4
X6.1Y-7.2
X7.6Y-4.3
X7.6Y-7.5
X8.4Y-4.3
X8.4Y-7.5
T7
X5.3Y-5.6
X5.3Y-5.8
X5.3Y-6.0
X5.3Y-6.2
X9.8Y-5.6
X9.8Y-5.8
X9.8Y-6.0
X9.8Y-6.2
T8
X5.2Y-4.2
X5.2Y-7.6
X10.8Y-4.2
X10.8Y-7.5945
T9
X10.4Y-4.5
X10.4Y-5.5
X10.4Y-6.3
X10.4Y-7.3
T0
M30
